<?xml version="1.0" encoding="UTF-8" standalone="no"?>
<!DOCTYPE svg PUBLIC "-//W3C//DTD SVG 1.1//EN" "http://www.w3.org/Graphics/SVG/1.1/DTD/svg11.dtd">
<svg width="100%" height="100%" viewBox="0 0 40 41" version="1.1" xmlns="http://www.w3.org/2000/svg" xmlns:xlink="http://www.w3.org/1999/xlink" xml:space="preserve" xmlns:serif="http://www.serif.com/" style="fill-rule:evenodd;clip-rule:evenodd;stroke-linejoin:round;stroke-miterlimit:2;">
    <g transform="matrix(1,0,0,1,-312.655,-147.713)">
        <g id="V1">
            <g transform="matrix(0.669544,0,0,0.717842,110.489,48.9575)">
                <rect x="301.946" y="137.572" width="59.742" height="55.78" style="fill:none;"/>
            </g>
            <g>
                <g transform="matrix(0.349744,0,0,0.674194,210.289,59.5444)">
                    <rect x="320.663" y="130.776" width="50.396" height="54.733" style="fill:rgb(67,149,111);"/>
                </g>
                <g transform="matrix(3.31178,0,0,1,-782.048,0)">
                    <path d="M341.631,157.523L338.825,147.713L338.825,184.613L341.631,187.754L341.631,157.523Z" style="fill:rgb(4,52,34);"/>
                </g>
                <g transform="matrix(1.13809,0,0,1,-45.936,0)">
                    <path d="M339.165,184.613L323.678,184.613L334.434,187.754L347.33,187.754L339.165,184.613Z"/>
                </g>
                <g transform="matrix(-1,0,0,1,663.503,1)">
                    <path d="M337.074,158.629L332.044,158.629L332.044,168.714C332.044,170.569 332.125,170.818 332.288,171.461C332.451,172.104 332.797,172.621 333.326,173.011C333.855,173.402 334.469,173.562 335.068,173.501C335.702,173.436 336.212,172.93 337.074,171.595L337.856,173.059C337.351,174.134 336.606,174.943 335.622,175.489C334.637,176.034 333.64,176.306 332.631,176.306C331.459,176.306 330.43,175.961 329.543,175.269C328.656,174.577 328.102,173.767 327.882,172.84C327.663,171.912 327.553,170.284 327.553,167.957L327.553,158.629L324.648,158.629L324.648,155.506C325.982,155.473 327.358,155.218 328.416,154.127C329.474,153.037 329.97,151.201 330.263,149.231L332.044,149.231L332.044,155.506L337.074,155.506L337.074,158.629Z" style="fill-rule:nonzero;"/>
                </g>
                <g transform="matrix(-1,0,0,1,661.503,1)">
                    <path d="M337.074,158.629L332.044,158.629L332.044,168.714C332.044,170.569 332.125,170.818 332.288,171.461C332.451,172.104 332.797,172.621 333.326,173.011C333.855,173.402 334.469,173.562 335.068,173.501C335.702,173.436 336.212,172.93 337.074,171.595L337.856,173.059C337.351,174.134 336.606,174.943 335.622,175.489C334.637,176.034 333.64,176.306 332.631,176.306C331.459,176.306 330.43,175.961 329.543,175.269C328.656,174.577 328.102,173.767 327.882,172.84C327.663,171.912 327.553,170.284 327.553,167.957L327.553,158.629L324.648,158.629L324.648,155.506C325.982,155.473 327.358,155.218 328.416,154.127C329.474,153.037 329.97,151.201 330.263,149.231L332.044,149.231L332.044,155.506L337.074,155.506L337.074,158.629Z" style="fill:white;fill-rule:nonzero;"/>
                </g>
            </g>
        </g>
    </g>
</svg>
